# xmcd
#
# Track frame offsets:
#	150
#	10215
#	22194
#	31299
#	44399
#	54777
#	67024
#	76750
#	86492
#	96406
#	105556
#	115143
#	124559
#	134790
#	146209
#	154058
#	165861
#	175381
#	188504
#	202217
#	214584
#	224968
#	235725
#	240506
#	254644
#	265242
#	274751
#
# Disc length: 3788 seconds
#
# Revision: 1
# Processed by: cddbd v1.5.1PL2 Copyright (c) Steve Scherf et al.
# Submitted via: audiograbber 1.83.01
#
DISCID=8a0eca1b
DTITLE=Jim Reeves - Welcome to My World  Disc 05
DYEAR=1994
DGENRE=Country
TTITLE0=Charmaine
TTITLE1=Mona Lisa
TTITLE2=Marie
TTITLE3=Goodnight Irene
TTITLE4=Linda
TTITLE5=Maria Elena
TTITLE6=My Mary
TTITLE7=Ramona
TTITLE8=Margie
TTITLE9=My Juanita
TTITLE10=Sweet Sue, Just You
TTITLE11=Overnight
TTITLE12=Blue Boy
TTITLE13=How Long Has It Been
TTITLE14=Teach Me How To Pray
TTITLE15=An Evening Prayer
TTITLE16=The Padre Of Old San Antone
TTITLE17=Suppertime
TTITLE18=It Is No Secret
TTITLE19=God Be With You
TTITLE20=A Beautiful Life
TTITLE21=In The Garden
TTITLE22=Precious Memories
TTITLE23=Whispering Hope
TTITLE24=The Flowers, The Sunset, The Trees
TTITLE25=I'd Like To Be
TTITLE26=Billy Bayou
EXTD=
EXTT0=
EXTT1=
EXTT2=
EXTT3=
EXTT4=
EXTT5=
EXTT6=
EXTT7=
EXTT8=
EXTT9=
EXTT10=
EXTT11=
EXTT12=
EXTT13=
EXTT14=
EXTT15=
EXTT16=
EXTT17=
EXTT18=
EXTT19=
EXTT20=
EXTT21=
EXTT22=
EXTT23=
EXTT24=
EXTT25=
EXTT26=
PLAYORDER=
